<?xml version="1.0" encoding="utf-8"?>
<!-- Generator: Adobe Illustrator 21.0.0, SVG Export Plug-In . SVG Version: 6.00 Build 0)  -->
<svg version="1.1" id="Layer_1" xmlns="http://www.w3.org/2000/svg" xmlns:xlink="http://www.w3.org/1999/xlink" x="0px" y="0px"
	 viewBox="0 0 720 360" style="enable-background:new 0 0 720 360;" xml:space="preserve">
<style type="text/css">
	.st0{fill:#F7ADBD;}
	.st1{fill:none;stroke:#F7ADBD;stroke-width:10;stroke-linecap:round;stroke-linejoin:round;stroke-miterlimit:10;}
</style>
<path class="st0" d="M379.2,147.4c0-9.5-7.7-17.2-17.2-17.2c-9.5,0-17.2,7.7-17.2,17.2c0,0-2.6,13.5,17.1,30.7
	C362.3,178,379.9,163.4,379.2,147.4z"/>
<path class="st0" d="M390.4,172.3c4.6-4,6.4-9.4,4-12.2s-8-1.8-12.6,2.2c0,0-7.2,4.9-10.5,17.8C371.3,180.3,382.8,179.3,390.4,172.3
	z"/>
<path class="st0" d="M332.2,172c-4.6-4-6.4-9.5-4-12.2c2.4-2.7,8.1-1.7,12.6,2.3c0,0,7.2,4.9,10.5,17.9
	C351.2,180.1,339.8,179,332.2,172z"/>
<path class="st1" d="M399.3,204.6c5.5-0.1,9.9-4.6,9.8-10.1c-0.1-6.9-5.8-12.3-12.6-12.2c-8.6,0.1-15.4,7.2-15.3,15.8
	c0.2,10.7,9,19.3,19.7,19.1c0,0,44.2,7.6,128-45.3s165.2,2.4,176.9,22.6"/>
<path class="st1" d="M324.3,204.4c-5.5-0.1-9.9-4.6-9.8-10.1c0.1-6.9,5.8-12.3,12.7-12.2c8.6,0.2,15.4,7.3,15.2,15.8
	c-0.2,10.7-9.1,19.3-19.8,19.1c0,0-44.2,7.4-127.8-45.8s-165.2,1.7-177,21.9"/>
</svg>
