<?xml version="1.0" encoding="utf-8"?>
<!-- Generator: Adobe Illustrator 21.0.0, SVG Export Plug-In . SVG Version: 6.00 Build 0)  -->
<svg version="1.1" id="Layer_1" xmlns="http://www.w3.org/2000/svg" xmlns:xlink="http://www.w3.org/1999/xlink" x="0px" y="0px"
	 viewBox="0 0 1000 1000" style="enable-background:new 0 0 1000 1000;" xml:space="preserve">
<style type="text/css">
	.st0{fill:#FFB2B8;}
</style>
<path class="st0" d="M105.1,278.5c3.7-0.7,7.1-2.6,10.9-2.7c33.8-1.3,68,5.9,98.4,20.8c43.9,21,79.6,58.1,99.6,102.4
	c2.5,5.4,4.9,10.8,6.9,16.4c17.1-34.6,43.8-64.5,76.5-85c36.5-23.2,80.4-34.6,123.5-31.9c49,2.7,96.5,23.7,131.9,57.6
	c17.8,17.5,33.3,37.7,43.7,60.5c17.8-52.4,57.8-96.6,107.7-120.4c30.7-14.5,64.9-22.2,98.9-20.1c3.9,0.2,7.3,2.5,10.8,3.8
	c15.7,6.1,29.3,17.4,38.7,31.4c21.5,31.6,21,76.4-1.4,107.4c12.9,10.4,22.5,24.4,28.2,39.8c11.1,30.7,5.8,67.5-15.6,92.5
	c17.5,23,23.4,54,16.1,81.8c-6.4,25.4-24.2,48.2-48.6,58.5c-3.7,1.9-8,2-11.5,4.3c-4.1,2.6-9.2,2.1-13.8,2.5c-15,1.5-30-0.3-44.9-2
	c-55-8.4-105.9-40.4-137.9-85.8c-6.5-9.2-12.2-19-17.4-29c-12.4,34.7-34,66.2-62.2,90.1c-26.4,22.5-58.6,38.2-92.5,45.4
	c-9.9,2.2-20,2.7-30.1,3.6c-10.8,1.1-21.7,0.4-32.5-0.6c-38-2.9-74.6-17.9-105.2-40.5c-14.1-11.1-27.7-23.2-38.5-37.6
	c-14.5-18.1-25.9-38.6-33.6-60.5c-14.7,30.5-37.3,57.1-64.5,77.2c-30.8,22.4-67.7,36.8-105.8,39.2c-9,0.6-18.1,1.6-27.2,0.6
	c-5.8-0.7-11.6-0.4-17.3-0.8c-15.4-2.8-30-10.3-41.1-21.3c-25.6-24.7-33.9-64.8-22-98.1c2.5-7.9,6.3-15.4,11.2-22
	c-15-16-23.1-37.7-24.2-59.4c0.2-4,0.3-8,0.2-12c2-26.1,15.4-51.4,36.8-66.9c-11.4-16.9-16.9-37.6-15.7-58
	c1.5-21.3,9.6-42.5,24.4-58C76.4,290.8,90,281.8,105.1,278.5 M90.4,321.5C77.6,333.9,71.6,352.4,73,370c1.2,13.8,6.1,27.8,15.8,37.9
	c3.4,3.3,5.3,8.2,4.7,13c-0.4,4.9-4,8.4-5.9,12.7c-2.1,4.2-6.6,6.1-10.4,8.5c-11.8,7.6-19.6,20-23.6,33.2c-2.1,7-2.1,14.3-1.9,21.6
	c1,15.7,7.3,31.6,19.4,41.9c3.6,3.4,8.7,5.4,11.1,9.9c3.5,5.9,2.3,14-2.6,18.7c-2.3,2.4-5.6,3.6-8.7,4.5c-2.7,5.4-6.3,10.3-8,16.2
	c-7.5,20.6-3.6,45,10.2,62c7.3,7.7,16.2,14.8,26.9,16.7c6.3,0,12.6,0.6,18.9,1c5.9,0.6,11.8-0.3,17.6-0.6
	c37.7-2,74.2-17.5,102.7-42.1c28.1-24.1,48.5-57.1,57.6-93c-29.5,15.8-62.3,25.6-95.8,27.7c-5.2,0.2-10.9,1.5-15.8-1.1
	c-5.8-2.8-9.3-9.5-8.4-15.8c0.8-7,6.9-12.9,13.9-13.3c10.4-0.7,20.8-1.5,31-3.3c27.6-5.3,54.2-16,77.5-31.7c0.3-3.3,0.6-6.6,0.9-9.8
	c-5.1-5.9-11.1-11-17.1-15.9c-26-21.7-58-35.6-91.2-42.1c-8.2-1.5-13.8-10.5-11.7-18.6c1.7-8.1,10.6-13.6,18.6-11.5
	c34.8,6.9,68.3,21.2,96.7,42.5c-3.1-10.3-6.4-20.7-11.2-30.4c-11.6-24.1-28.5-45.7-49.4-62.5c-31.9-25.8-72.9-40.1-114-39.4
	C109.8,308.7,98.2,312.7,90.4,321.5 M874.9,308.1c-32.8,3.1-64.4,16.3-90.3,36.6c-27.5,21.5-48.7,51-59.7,84.2
	c22.4-12.9,46.6-23,72.1-27.9c4.5-1,9.4,0.3,13,3.3c6.2,5,7.4,15,2.4,21.3c-3.4,4.9-9.6,6-15,7c-13.6,3.7-27.1,7.7-39.7,14.1
	c-15.1,6.8-29,15.9-41.9,26.3c0.2,8.5,2.1,16.8,2.2,25.3c26.1,18.1,56.5,29.8,87.9,34.4c6.5,1.1,14.3,0,19.4,5.1
	c7.1,6.2,6.3,18.8-1.6,24c-5.4,4.2-12.6,2.6-18.8,2c-29-3.6-57.1-12.9-82.9-26.6c3.5,12.1,8,23.9,14,35
	c8.7,15.7,18.8,30.7,31.6,43.3c7.3,6.8,14.5,13.6,22.7,19.3c26.2,18.7,57.5,30.8,89.8,32.6c10.3,1,20.6,0.9,30.8-0.4
	c5.3-2.8,11-4.8,15.9-8.2c11.3-7.2,19-19.2,22.7-31.9c4.4-15.3,3-32.2-3.9-46.5c-3.2-6.8-8-12.5-12.8-18.2
	c-4.5-3.9-6.7-10.5-4.8-16.2c0.9-3.8,3.8-6.6,6.7-9.1c8.4-7.3,13.7-17.6,16.8-28.2c6.5-22.4-0.4-48.6-18.3-63.9
	c-3.7-3.6-8.4-5.7-12.7-8.3c-7-4.2-10.1-14-6.5-21.4c1.6-3.5,4.8-5.8,7.4-8.6c9.9-10.7,15.4-25.1,16-39.6c1.1-21.8-9.5-44.7-29-55.4
	c-4.6-2.1-9.2-5-14.4-4.5C887.6,306.6,881.3,307.6,874.9,308.1 M440.7,342.7c-33.1,13.5-61.5,37.5-81.2,67.3
	c6.9,1.7,13.2,5.4,18.5,10.1c12.5,10.6,20.1,25.8,33.2,35.8c6.7,5.4,15.5,9,24.2,6.9c10.8-2.8,19-11,26.1-19.1
	c8.4-10.2,16.2-21.3,27.7-28.3c8-5.1,18.3-7.2,27.5-4.2c11.8,3.9,21,13,28.7,22.4c8,10.2,16.4,20.8,28.2,26.8c7.6,3.9,17,3.9,24.6,0
	c12.9-6.5,21.6-18.5,30.4-29.6c7.7-9.1,16.5-18.6,28.5-21.4c-8.3-12.3-18-23.6-28.8-33.7c-14.1-12.9-30.5-23.2-47.8-31.2
	C536.8,324.8,484.9,324,440.7,342.7 M654.1,437.1c-7.9,4.1-13.5,11.2-19,17.9c-8.6,11-17.8,22.1-30,29.2c-8.1,4.8-18,7-27.2,4.5
	c-12.1-3-21.8-11.6-30.2-20.5c-9.5-10.1-16.6-23.1-29.3-29.5c-7.1-3.9-16.1-3.5-23,0.7c-12.4,7-19.4,20-29.1,30
	c-7.9,8.3-17.1,16.2-28.4,19.1c-9,2.4-18.7,0.1-26.6-4.7c-13.2-7.9-22.5-20.3-32-32.1c-6.4-7.3-14-15.3-24.3-15.9
	c-3.7,0.1-8.1,0.7-10.8,3.4c-7.3,16.5-11.4,34.4-13.5,52.3c6.5-5.8,14.5-10.6,23.5-10.7c8.8-0.1,16.8,4.4,23.3,9.9
	c13,10.7,20.7,26.5,34.3,36.6c6.8,5.4,16,8.9,24.7,6.3c11.7-3.6,20.3-13.1,27.9-22.2c8.1-10.4,16.8-21.2,28.9-27.1
	c7.9-4,17.5-4.6,25.7-1.2c12.2,4.8,21.2,14.8,29.1,24.9c7.7,9.6,16.1,19.5,27.7,24.4c8,3.5,17.4,2.4,24.7-2
	c13.2-7.5,21.6-20.5,31.2-31.8c7.2-7.8,15.4-16.2,26.4-18c10.2-1.6,19.3,4.7,26.4,11.3c-0.3-7,0.7-14.2-1.2-21.1
	c-2.5-10-5-20.1-9.4-29.5C669.2,435.7,660.6,433.6,654.1,437.1 M330.2,522c0.5,12.2,3.3,24.2,6.1,36.1c5.6-3.6,12-6.4,18.7-6.1
	c8.9,0.2,16.8,5,23.3,10.7c11.2,9.5,18.4,22.8,29.4,32.5c6.1,5.5,13.7,10.5,22.3,10.5c8.6,0,16.2-4.9,22.4-10.3
	c12.2-10.6,19.8-25.6,33.1-35.1c8.2-6.3,19.2-10.1,29.5-7.3c12.4,3.2,21.9,12.6,29.9,22.2c8.3,10.5,16.9,21.7,29.2,27.8
	c7.9,4,17.6,3.6,25.2-0.7c13.4-7.2,22-20.1,31.5-31.5c7.2-8,15.3-16.5,26.2-18.9c8.6-1.8,17,2.5,23.5,7.7c2.9-10.7,5.1-21.6,6-32.7
	c0.3-2-1.6-3.4-2.6-4.9c-5.2-5.8-10.6-12.2-18.2-14.8c-6.3-2.2-12.8,0.8-17.6,4.9c-10.9,9.2-17.9,21.9-28.2,31.6
	c-9.1,8.9-20.6,17-33.9,17.1c-13.3,0-24.8-8.1-33.9-17c-11-10-17.9-24.2-30.7-32.3c-6.7-4.5-15.7-5.9-23.1-2.4
	c-10.4,4.7-17.6,14-24.5,22.8c-8.5,10.4-18.2,20.7-30.8,26c-9.4,4.1-20.5,3.2-29.4-1.7c-14.4-7.7-24.4-21-34.4-33.5
	c-6.4-7.2-14-15.3-24.2-15.9C344.6,506.9,336.7,514.8,330.2,522 M344.2,580.9c5.1,11.7,11,23.1,18.6,33.4
	c20.9,30.2,51.6,53.3,86.1,65.8c20.1,7.5,41.8,10.2,63.1,10.2c14.1-1,28.3-1.8,41.9-5.7c21.1-5.6,41.1-15.1,58.8-27.9
	c26.2-18.9,47.1-45.1,59.8-74.8c-3.4-2.3-7.3-4.4-11.5-4.2c-5.8,0.1-10.7,3.6-14.8,7.4c-10.2,9.5-17.3,21.9-27.6,31.2
	c-9,8.6-20.5,16.1-33.5,15.7c-13.7-0.4-25.3-9.2-34.6-18.6c-10-9.7-16.7-22.6-28.6-30.4c-6.5-4.6-15.3-6.3-22.8-3.1
	c-10.1,4.2-17.3,12.9-23.8,21.2c-7.6,9.6-16.1,19-26.8,25.2c-7.8,4.6-17.3,6.7-26.2,4.3c-11.7-3.1-21.1-11.4-29.1-20
	c-9.7-10.2-16.7-23.5-29.5-30.3C357.6,577.1,350.1,577.7,344.2,580.9z"/>
</svg>
